# xmcd
#
# Track frame offsets:
#	150
#	22706
#	39804
#	61400
#	79918
#	100246
#	125443
#	138497
#	160348
#	178719
#	192792
#	203451
#	216727
#
# Disc length: 3045 seconds
# Revision: 0
# Processed by: cddbd v1.5.2PL0 Copyright (c) Steve Scherf et al.
# Submitted via: dBpowerAMP V12.0
#
DISCID=ad0be30d
DTITLE=The Avett brothers - I and love and you
DYEAR=2010
DGENRE=Slow Rock
TTITLE0=I and love and you
TTITLE1=January wedding
TTITLE2=Head full of doubt, road full of promise
TTITLE3=And it spread
TTITLE4=The perfect space
TTITLE5=Ten thousand words
TTITLE6=Kick drum heart
TTITLE7=Laundry room
TTITLE8=Ill with want
TTITLE9=Tin man
TTITLE10=Slight figure of speech
TTITLE11=It goes on and on
TTITLE12=Incomplete and insecure
EXTD=
EXTT0=
EXTT1=
EXTT2=
EXTT3=
EXTT4=
EXTT5=
EXTT6=
EXTT7=
EXTT8=
EXTT9=
EXTT10=
EXTT11=
EXTT12=
PLAYORDER=
